<svg width="82" height="90" viewBox="0 0 82 90" fill="none" xmlns="http://www.w3.org/2000/svg">
<path d="M40.808 46.684C52.856 46.684 62.656 33.897 62.656 21.85C62.656 9.803 52.856 0 40.808 0C28.76 0 18.959 9.803 18.959 21.85C18.961 33.896 28.761 46.684 40.808 46.684Z" fill="black"/>
<path d="M57.21 46.908C52.972 50.137 47.685 52.058 41.958 52.058H39.658C33.93 52.058 28.642 50.136 24.405 46.908C10.567 49.145 0 61.139 0 75.607C0 83.555 18.27 90 40.808 90C63.345 90 81.616 83.555 81.616 75.607C81.616 61.139 71.048 49.145 57.21 46.908Z" fill="black"/>
</svg>
